<svg version="1.1" id="Layer_1" xmlns="http://www.w3.org/2000/svg" xmlns:xlink="http://www.w3.org/1999/xlink" x="0px" y="0px"
	 viewBox="0 0 31 31" style="enable-background:new 0 0 31 31;" xml:space="preserve">
<style type="text/css">
	.st0{fill:#000000;}
</style>
<g>
	<g id="hnUsxa_1_">
		<g>
			<g>
				<path class="st0" d="M20.5,10.4c0.5,0,0.8,0.3,0.7,0.8c0,0.4-0.1,0.8-0.3,1.2c-0.7,2.1-1.4,4.2-2.1,6.4c-0.3,1-0.7,2-1,2.9
					c-0.1,0.2-0.2,0.5-0.3,0.7c-0.1,0.1-0.1,0.2-0.2,0.3c-0.4,0.6-0.9,0.6-1.3,0.1c-0.4-0.4-0.6-0.9-0.8-1.4
					c-0.4-0.9-0.8-1.7-1.2-2.6c-0.2-0.5-0.6-0.9-1.1-1.1c-1-0.5-1.9-0.9-2.9-1.4c-0.4-0.2-0.8-0.4-1.1-0.7c-0.4-0.4-0.3-0.9,0.1-1.2
					c0.2-0.2,0.4-0.3,0.6-0.4c0.9-0.3,1.8-0.7,2.7-1c2.2-0.8,4.3-1.5,6.5-2.3c0.5-0.2,1-0.3,1.5-0.4C20.3,10.4,20.4,10.4,20.5,10.4z
					"/>
			</g>
		</g>
	</g>
	<g>
		<path class="st0" d="M15.5,30.5c-8.3,0-15-6.7-15-15s6.7-15,15-15s15,6.7,15,15S23.8,30.5,15.5,30.5z M15.5,1.6
			C7.8,1.6,1.6,7.8,1.6,15.5s6.2,13.9,13.9,13.9s13.9-6.2,13.9-13.9S23.2,1.6,15.5,1.6z"/>
	</g>
</g>
</svg>
